<svg xmlns="http://www.w3.org/2000/svg" xmlns:xlink="http://www.w3.org/1999/xlink" width="320" zoomAndPan="magnify" viewBox="0 0 240 239.999995" height="320" preserveAspectRatio="xMidYMid meet" version="1.0"><path fill="#ffffff" d="M 120 0 C 53.835938 0 0 53.835938 0 120 C 0 186.164062 53.835938 240 120 240 C 186.164062 240 240 186.164062 240 120 C 240 53.835938 186.164062 0 120 0 Z M 52.605469 200.40625 C 53.722656 164.160156 83.484375 135 120 135 C 156.515625 135 186.277344 164.160156 187.394531 200.40625 C 169.140625 215.730469 145.640625 225 120 225 C 94.359375 225 70.859375 215.730469 52.605469 200.40625 Z M 82.5 82.5 C 82.5 61.824219 99.324219 45 120 45 C 140.675781 45 157.5 61.824219 157.5 82.5 C 157.5 103.175781 140.675781 120 120 120 C 99.324219 120 82.5 103.175781 82.5 82.5 Z M 200.953125 186.789062 C 195.523438 158.753906 175.859375 135.800781 149.8125 125.65625 C 163.5 116.175781 172.5 100.371094 172.5 82.5 C 172.5 53.558594 148.941406 30 120 30 C 91.058594 30 67.5 53.558594 67.5 82.5 C 67.5 100.371094 76.5 116.175781 90.1875 125.664062 C 64.140625 135.808594 44.476562 158.761719 39.039062 186.796875 C 24.03125 168.628906 15 145.351562 15 120 C 15 62.101562 62.101562 15 120 15 C 177.898438 15 225 62.101562 225 120 C 225 145.351562 215.96875 168.628906 200.953125 186.789062 Z M 200.953125 186.789062 " fill-opacity="1" fill-rule="nonzero"/></svg>