<svg xmlns="http://www.w3.org/2000/svg" xmlns:xlink="http://www.w3.org/1999/xlink" width="320" zoomAndPan="magnify" viewBox="0 0 240 239.999995" height="320" preserveAspectRatio="xMidYMid meet" version="1.0"><defs><clipPath id="c49fac1149"><path d="M 22.875 1.375 L 217.125 1.375 L 217.125 238.375 L 22.875 238.375 Z M 22.875 1.375 " clip-rule="nonzero"/></clipPath></defs><g clip-path="url(#c49fac1149)"><path fill="#ffffff" d="M 120 109.101562 C 121.765625 109.101562 123.527344 109.015625 125.285156 108.84375 C 127.042969 108.667969 128.789062 108.410156 130.519531 108.066406 C 132.25 107.722656 133.960938 107.292969 135.652344 106.78125 C 137.34375 106.269531 139.003906 105.675781 140.632812 105 C 142.265625 104.324219 143.859375 103.574219 145.417969 102.742188 C 146.976562 101.910156 148.488281 101.003906 149.957031 100.023438 C 151.425781 99.042969 152.839844 97.992188 154.207031 96.875 C 155.570312 95.753906 156.878906 94.574219 158.125 93.324219 C 159.375 92.078125 160.558594 90.773438 161.679688 89.410156 C 162.800781 88.042969 163.851562 86.628906 164.832031 85.164062 C 165.8125 83.695312 166.71875 82.183594 167.554688 80.628906 C 168.386719 79.074219 169.140625 77.480469 169.816406 75.851562 C 170.492188 74.21875 171.085938 72.5625 171.597656 70.875 C 172.109375 69.183594 172.539062 67.476562 172.882812 65.746094 C 173.226562 64.015625 173.488281 62.273438 173.660156 60.515625 C 173.832031 58.761719 173.917969 57 173.917969 55.238281 C 173.917969 53.472656 173.832031 51.714844 173.660156 49.957031 C 173.488281 48.203125 173.226562 46.460938 172.882812 44.730469 C 172.539062 43 172.109375 41.289062 171.597656 39.601562 C 171.085938 37.914062 170.492188 36.253906 169.816406 34.625 C 169.140625 32.996094 168.386719 31.402344 167.554688 29.847656 C 166.71875 28.289062 165.8125 26.78125 164.832031 25.3125 C 163.851562 23.847656 162.800781 22.429688 161.679688 21.066406 C 160.558594 19.703125 159.375 18.398438 158.125 17.148438 C 156.878906 15.902344 155.570312 14.71875 154.207031 13.601562 C 152.839844 12.480469 151.425781 11.433594 149.957031 10.453125 C 148.488281 9.472656 146.976562 8.566406 145.417969 7.734375 C 143.859375 6.902344 142.265625 6.148438 140.632812 5.472656 C 139.003906 4.800781 137.34375 4.207031 135.652344 3.695312 C 133.960938 3.179688 132.25 2.753906 130.519531 2.410156 C 128.789062 2.066406 127.042969 1.804688 125.285156 1.632812 C 123.527344 1.460938 121.765625 1.375 120 1.375 C 118.234375 1.375 116.472656 1.460938 114.714844 1.632812 C 112.957031 1.804688 111.210938 2.066406 109.480469 2.410156 C 107.75 2.753906 106.039062 3.179688 104.347656 3.695312 C 102.65625 4.207031 100.996094 4.800781 99.367188 5.472656 C 97.734375 6.148438 96.140625 6.902344 94.582031 7.734375 C 93.023438 8.566406 91.511719 9.472656 90.042969 10.453125 C 88.574219 11.433594 87.160156 12.480469 85.792969 13.601562 C 84.429688 14.71875 83.121094 15.902344 81.875 17.148438 C 80.625 18.398438 79.441406 19.703125 78.320312 21.066406 C 77.199219 22.429688 76.148438 23.847656 75.167969 25.3125 C 74.1875 26.78125 73.28125 28.289062 72.445312 29.847656 C 71.613281 31.402344 70.859375 32.996094 70.183594 34.625 C 69.507812 36.253906 68.914062 37.914062 68.402344 39.601562 C 67.890625 41.289062 67.460938 43 67.117188 44.730469 C 66.773438 46.460938 66.511719 48.203125 66.339844 49.957031 C 66.167969 51.714844 66.082031 53.472656 66.082031 55.238281 C 66.082031 57 66.171875 58.761719 66.347656 60.515625 C 66.519531 62.269531 66.78125 64.011719 67.128906 65.742188 C 67.472656 67.472656 67.902344 69.179688 68.417969 70.867188 C 68.929688 72.554688 69.527344 74.210938 70.203125 75.839844 C 70.878906 77.46875 71.632812 79.0625 72.464844 80.617188 C 73.300781 82.171875 74.207031 83.679688 75.1875 85.148438 C 76.167969 86.613281 77.21875 88.027344 78.339844 89.390625 C 79.460938 90.753906 80.644531 92.058594 81.890625 93.304688 C 83.140625 94.554688 84.445312 95.734375 85.8125 96.855469 C 87.175781 97.972656 88.589844 99.023438 90.058594 100.003906 C 91.527344 100.984375 93.039062 101.890625 94.59375 102.722656 C 96.152344 103.554688 97.746094 104.308594 99.375 104.984375 C 101.007812 105.660156 102.667969 106.253906 104.355469 106.765625 C 106.042969 107.28125 107.753906 107.710938 109.484375 108.054688 C 111.214844 108.402344 112.960938 108.660156 114.71875 108.835938 C 116.472656 109.011719 118.234375 109.097656 120 109.101562 Z M 120 22.917969 C 121.058594 22.917969 122.117188 22.972656 123.171875 23.074219 C 124.226562 23.179688 125.273438 23.335938 126.3125 23.539062 C 127.351562 23.746094 128.378906 24.003906 129.390625 24.3125 C 130.40625 24.617188 131.402344 24.972656 132.378906 25.378906 C 133.359375 25.785156 134.316406 26.238281 135.25 26.734375 C 136.183594 27.234375 137.09375 27.777344 137.972656 28.367188 C 138.855469 28.953125 139.703125 29.582031 140.523438 30.253906 C 141.34375 30.925781 142.125 31.636719 142.875 32.386719 C 143.625 33.132812 144.335938 33.917969 145.007812 34.734375 C 145.679688 35.554688 146.3125 36.402344 146.898438 37.28125 C 147.488281 38.164062 148.03125 39.070312 148.53125 40.003906 C 149.03125 40.9375 149.484375 41.890625 149.890625 42.871094 C 150.292969 43.847656 150.652344 44.84375 150.957031 45.855469 C 151.265625 46.867188 151.523438 47.894531 151.730469 48.933594 C 151.9375 49.972656 152.09375 51.015625 152.195312 52.070312 C 152.300781 53.125 152.351562 54.179688 152.351562 55.238281 C 152.351562 56.296875 152.300781 57.351562 152.195312 58.40625 C 152.09375 59.457031 151.9375 60.503906 151.730469 61.542969 C 151.523438 62.582031 151.265625 63.605469 150.957031 64.617188 C 150.652344 65.632812 150.292969 66.628906 149.890625 67.605469 C 149.484375 68.582031 149.03125 69.539062 148.53125 70.472656 C 148.03125 71.40625 147.488281 72.3125 146.898438 73.191406 C 146.3125 74.074219 145.679688 74.921875 145.007812 75.738281 C 144.335938 76.558594 143.625 77.339844 142.875 78.089844 C 142.125 78.839844 141.34375 79.546875 140.523438 80.21875 C 139.703125 80.890625 138.855469 81.519531 137.972656 82.109375 C 137.09375 82.699219 136.183594 83.242188 135.25 83.738281 C 134.316406 84.238281 133.359375 84.691406 132.378906 85.097656 C 131.402344 85.5 130.40625 85.855469 129.390625 86.164062 C 128.378906 86.472656 127.351562 86.726562 126.3125 86.933594 C 125.273438 87.140625 124.226562 87.296875 123.171875 87.398438 C 122.117188 87.503906 121.058594 87.554688 120 87.554688 C 118.941406 87.554688 117.882812 87.503906 116.828125 87.398438 C 115.773438 87.296875 114.726562 87.140625 113.6875 86.933594 C 112.648438 86.726562 111.621094 86.472656 110.609375 86.164062 C 109.59375 85.855469 108.597656 85.5 107.621094 85.097656 C 106.640625 84.691406 105.683594 84.238281 104.75 83.738281 C 103.816406 83.242188 102.90625 82.699219 102.027344 82.109375 C 101.144531 81.519531 100.296875 80.890625 99.476562 80.21875 C 98.65625 79.546875 97.875 78.839844 97.125 78.089844 C 96.375 77.339844 95.664062 76.558594 94.992188 75.738281 C 94.320312 74.921875 93.6875 74.074219 93.101562 73.191406 C 92.511719 72.3125 91.96875 71.40625 91.46875 70.472656 C 90.96875 69.539062 90.515625 68.582031 90.109375 67.605469 C 89.707031 66.628906 89.347656 65.632812 89.042969 64.621094 C 88.734375 63.605469 88.476562 62.582031 88.269531 61.542969 C 88.0625 60.503906 87.90625 59.457031 87.804688 58.40625 C 87.699219 57.351562 87.648438 56.296875 87.648438 55.238281 C 87.648438 54.179688 87.699219 53.125 87.804688 52.070312 C 87.90625 51.015625 88.0625 49.972656 88.269531 48.933594 C 88.476562 47.894531 88.734375 46.867188 89.042969 45.855469 C 89.347656 44.84375 89.707031 43.847656 90.109375 42.871094 C 90.515625 41.890625 90.96875 40.9375 91.46875 40.003906 C 91.96875 39.070312 92.511719 38.164062 93.101562 37.28125 C 93.6875 36.402344 94.320312 35.554688 94.992188 34.734375 C 95.664062 33.917969 96.375 33.132812 97.125 32.386719 C 97.875 31.636719 98.65625 30.925781 99.476562 30.253906 C 100.296875 29.582031 101.144531 28.953125 102.027344 28.367188 C 102.90625 27.777344 103.816406 27.234375 104.75 26.734375 C 105.683594 26.238281 106.640625 25.785156 107.621094 25.378906 C 108.597656 24.972656 109.59375 24.617188 110.609375 24.3125 C 111.621094 24.003906 112.648438 23.746094 113.6875 23.539062 C 114.726562 23.335938 115.773438 23.179688 116.828125 23.074219 C 117.882812 22.972656 118.941406 22.917969 120 22.917969 Z M 22.945312 227.601562 C 22.945312 226.015625 22.984375 224.429688 23.0625 222.84375 C 23.140625 221.261719 23.257812 219.679688 23.414062 218.101562 C 23.570312 216.523438 23.765625 214.949219 24 213.378906 C 24.234375 211.808594 24.503906 210.246094 24.816406 208.691406 C 25.125 207.136719 25.472656 205.589844 25.859375 204.050781 C 26.246094 202.511719 26.671875 200.980469 27.132812 199.464844 C 27.59375 197.945312 28.089844 196.441406 28.628906 194.945312 C 29.164062 193.453125 29.734375 191.972656 30.34375 190.507812 C 30.949219 189.042969 31.59375 187.59375 32.273438 186.160156 C 32.953125 184.726562 33.667969 183.308594 34.414062 181.910156 C 35.164062 180.511719 35.949219 179.132812 36.765625 177.769531 C 37.582031 176.410156 38.429688 175.070312 39.3125 173.753906 C 40.195312 172.433594 41.109375 171.136719 42.054688 169.863281 C 43.003906 168.589844 43.980469 167.339844 44.988281 166.113281 C 45.996094 164.886719 47.03125 163.6875 48.097656 162.511719 C 49.164062 161.335938 50.261719 160.1875 51.382812 159.066406 C 52.507812 157.945312 53.65625 156.851562 54.832031 155.785156 C 56.011719 154.71875 57.210938 153.683594 58.441406 152.679688 C 59.667969 151.671875 60.917969 150.695312 62.195312 149.753906 C 63.472656 148.808594 64.769531 147.894531 66.089844 147.011719 C 67.410156 146.132812 68.75 145.285156 70.113281 144.46875 C 71.476562 143.652344 72.855469 142.871094 74.257812 142.125 C 75.660156 141.375 77.078125 140.664062 78.511719 139.984375 C 79.949219 139.308594 81.398438 138.664062 82.867188 138.058594 C 84.332031 137.449219 85.816406 136.878906 87.308594 136.34375 C 88.804688 135.8125 90.3125 135.3125 91.832031 134.851562 C 93.351562 134.394531 94.882812 133.96875 96.421875 133.585938 C 97.964844 133.199219 99.511719 132.851562 101.070312 132.542969 C 102.628906 132.234375 104.191406 131.960938 105.761719 131.730469 C 107.332031 131.496094 108.910156 131.300781 110.488281 131.148438 C 112.070312 130.992188 113.652344 130.875 115.238281 130.796875 C 116.824219 130.71875 118.410156 130.679688 120 130.679688 C 121.589844 130.679688 123.175781 130.71875 124.761719 130.796875 C 126.347656 130.875 127.929688 130.992188 129.511719 131.148438 C 131.089844 131.300781 132.667969 131.496094 134.238281 131.730469 C 135.808594 131.960938 137.371094 132.234375 138.929688 132.542969 C 140.488281 132.851562 142.035156 133.199219 143.578125 133.585938 C 145.117188 133.96875 146.648438 134.394531 148.167969 134.851562 C 149.6875 135.3125 151.195312 135.8125 152.691406 136.34375 C 154.183594 136.878906 155.667969 137.449219 157.132812 138.058594 C 158.601562 138.664062 160.050781 139.308594 161.488281 139.984375 C 162.921875 140.664062 164.339844 141.375 165.742188 142.125 C 167.144531 142.871094 168.523438 143.652344 169.886719 144.46875 C 171.25 145.285156 172.589844 146.132812 173.910156 147.011719 C 175.230469 147.894531 176.527344 148.808594 177.804688 149.753906 C 179.082031 150.695312 180.332031 151.671875 181.558594 152.679688 C 182.789062 153.683594 183.988281 154.71875 185.167969 155.785156 C 186.34375 156.851562 187.492188 157.945312 188.617188 159.066406 C 189.738281 160.1875 190.835938 161.335938 191.902344 162.511719 C 192.96875 163.6875 194.003906 164.886719 195.011719 166.113281 C 196.019531 167.339844 196.996094 168.589844 197.945312 169.863281 C 198.890625 171.136719 199.804688 172.433594 200.6875 173.753906 C 201.570312 175.070312 202.417969 176.410156 203.234375 177.769531 C 204.050781 179.132812 204.835938 180.511719 205.585938 181.910156 C 206.332031 183.308594 207.046875 184.726562 207.726562 186.160156 C 208.40625 187.59375 209.050781 189.042969 209.65625 190.507812 C 210.265625 191.972656 210.835938 193.453125 211.371094 194.945312 C 211.910156 196.441406 212.40625 197.945312 212.867188 199.464844 C 213.328125 200.980469 213.753906 202.511719 214.140625 204.050781 C 214.527344 205.589844 214.875 207.136719 215.183594 208.691406 C 215.496094 210.246094 215.765625 211.808594 216 213.378906 C 216.234375 214.949219 216.429688 216.523438 216.585938 218.101562 C 216.742188 219.679688 216.859375 221.261719 216.9375 222.84375 C 217.015625 224.429688 217.054688 226.015625 217.054688 227.601562 C 217.054688 228.308594 216.984375 229.007812 216.847656 229.703125 C 216.710938 230.398438 216.503906 231.070312 216.234375 231.722656 C 215.964844 232.378906 215.632812 233 215.238281 233.585938 C 214.84375 234.175781 214.398438 234.71875 213.898438 235.21875 C 213.394531 235.71875 212.851562 236.164062 212.261719 236.558594 C 211.671875 236.953125 211.050781 237.285156 210.398438 237.554688 C 209.742188 237.824219 209.070312 238.027344 208.375 238.167969 C 207.679688 238.304688 206.980469 238.375 206.269531 238.375 C 205.5625 238.375 204.863281 238.304688 204.167969 238.167969 C 203.472656 238.027344 202.796875 237.824219 202.144531 237.554688 C 201.492188 237.285156 200.867188 236.953125 200.28125 236.558594 C 199.691406 236.164062 199.148438 235.71875 198.644531 235.21875 C 198.144531 234.71875 197.699219 234.175781 197.304688 233.585938 C 196.910156 233 196.578125 232.378906 196.308594 231.722656 C 196.039062 231.070312 195.832031 230.398438 195.695312 229.703125 C 195.554688 229.007812 195.488281 228.308594 195.488281 227.601562 C 195.488281 226.367188 195.457031 225.132812 195.394531 223.902344 C 195.335938 222.667969 195.246094 221.4375 195.125 220.210938 C 195.003906 218.980469 194.851562 217.757812 194.671875 216.535156 C 194.488281 215.316406 194.277344 214.101562 194.035156 212.890625 C 193.796875 211.679688 193.523438 210.476562 193.226562 209.277344 C 192.925781 208.082031 192.59375 206.890625 192.238281 205.710938 C 191.878906 204.53125 191.492188 203.359375 191.074219 202.195312 C 190.660156 201.035156 190.214844 199.882812 189.742188 198.742188 C 189.269531 197.601562 188.769531 196.476562 188.238281 195.359375 C 187.710938 194.242188 187.15625 193.140625 186.574219 192.054688 C 185.992188 190.964844 185.382812 189.890625 184.746094 188.832031 C 184.113281 187.773438 183.453125 186.730469 182.765625 185.707031 C 182.078125 184.679688 181.367188 183.671875 180.632812 182.679688 C 179.894531 181.6875 179.136719 180.714844 178.351562 179.761719 C 177.570312 178.808594 176.761719 177.875 175.933594 176.960938 C 175.101562 176.046875 174.25 175.152344 173.378906 174.277344 C 172.503906 173.40625 171.609375 172.554688 170.695312 171.726562 C 169.777344 170.898438 168.84375 170.09375 167.890625 169.308594 C 166.933594 168.527344 165.960938 167.765625 164.96875 167.03125 C 163.976562 166.296875 162.964844 165.585938 161.9375 164.902344 C 160.910156 164.214844 159.867188 163.554688 158.808594 162.921875 C 157.75 162.285156 156.675781 161.679688 155.585938 161.097656 C 154.496094 160.515625 153.390625 159.960938 152.273438 159.433594 C 151.15625 158.90625 150.027344 158.40625 148.886719 157.933594 C 147.746094 157.460938 146.59375 157.015625 145.429688 156.601562 C 144.269531 156.183594 143.09375 155.796875 141.914062 155.4375 C 140.730469 155.082031 139.539062 154.753906 138.34375 154.453125 C 137.144531 154.152344 135.9375 153.882812 134.726562 153.640625 C 133.515625 153.402344 132.296875 153.191406 131.078125 153.007812 C 129.855469 152.828125 128.628906 152.675781 127.398438 152.554688 C 126.167969 152.433594 124.9375 152.34375 123.703125 152.28125 C 122.46875 152.222656 121.234375 152.191406 120 152.191406 C 118.765625 152.191406 117.53125 152.222656 116.296875 152.28125 C 115.0625 152.34375 113.832031 152.433594 112.601562 152.554688 C 111.371094 152.675781 110.144531 152.828125 108.921875 153.007812 C 107.703125 153.191406 106.484375 153.402344 105.273438 153.640625 C 104.0625 153.882812 102.855469 154.152344 101.65625 154.453125 C 100.460938 154.753906 99.269531 155.082031 98.085938 155.4375 C 96.90625 155.796875 95.730469 156.183594 94.570312 156.601562 C 93.40625 157.015625 92.253906 157.460938 91.113281 157.933594 C 89.972656 158.40625 88.839844 158.90625 87.726562 159.433594 C 86.609375 159.960938 85.503906 160.515625 84.414062 161.097656 C 83.324219 161.679688 82.25 162.285156 81.191406 162.921875 C 80.132812 163.554688 79.089844 164.214844 78.0625 164.902344 C 77.035156 165.585938 76.023438 166.296875 75.03125 167.03125 C 74.039062 167.765625 73.066406 168.527344 72.109375 169.308594 C 71.15625 170.09375 70.222656 170.898438 69.304688 171.726562 C 68.390625 172.554688 67.496094 173.40625 66.621094 174.277344 C 65.75 175.152344 64.898438 176.046875 64.066406 176.960938 C 63.238281 177.875 62.429688 178.808594 61.648438 179.761719 C 60.863281 180.714844 60.105469 181.6875 59.367188 182.679688 C 58.632812 183.671875 57.921875 184.679688 57.234375 185.707031 C 56.546875 186.730469 55.886719 187.773438 55.253906 188.832031 C 54.617188 189.890625 54.007812 190.964844 53.425781 192.054688 C 52.84375 193.140625 52.289062 194.242188 51.761719 195.359375 C 51.230469 196.476562 50.730469 197.601562 50.257812 198.742188 C 49.785156 199.882812 49.339844 201.035156 48.925781 202.195312 C 48.507812 203.359375 48.121094 204.53125 47.761719 205.710938 C 47.40625 206.890625 47.074219 208.082031 46.773438 209.277344 C 46.476562 210.476562 46.203125 211.679688 45.964844 212.890625 C 45.722656 214.101562 45.511719 215.316406 45.328125 216.535156 C 45.148438 217.757812 44.996094 218.980469 44.875 220.210938 C 44.753906 221.4375 44.664062 222.667969 44.605469 223.902344 C 44.542969 225.132812 44.511719 226.367188 44.511719 227.601562 C 44.511719 228.308594 44.445312 229.007812 44.304688 229.703125 C 44.167969 230.398438 43.960938 231.070312 43.691406 231.722656 C 43.421875 232.378906 43.089844 233 42.695312 233.585938 C 42.300781 234.175781 41.855469 234.71875 41.355469 235.21875 C 40.851562 235.71875 40.308594 236.164062 39.71875 236.558594 C 39.132812 236.953125 38.507812 237.285156 37.855469 237.554688 C 37.203125 237.824219 36.527344 238.027344 35.832031 238.167969 C 35.136719 238.304688 34.4375 238.375 33.730469 238.375 C 33.019531 238.375 32.320312 238.304688 31.625 238.167969 C 30.929688 238.027344 30.257812 237.824219 29.601562 237.554688 C 28.949219 237.285156 28.328125 236.953125 27.738281 236.558594 C 27.148438 236.164062 26.605469 235.71875 26.101562 235.21875 C 25.601562 234.71875 25.15625 234.175781 24.761719 233.585938 C 24.367188 233 24.035156 232.378906 23.765625 231.722656 C 23.496094 231.070312 23.289062 230.398438 23.152344 229.703125 C 23.015625 229.007812 22.945312 228.308594 22.945312 227.601562 Z M 22.945312 227.601562 " fill-opacity="1" fill-rule="nonzero"/></g></svg>